<?xml version="1.0" encoding="utf-8"?>
<!-- Generator: Adobe Illustrator 28.0.0, SVG Export Plug-In . SVG Version: 6.00 Build 0)  -->
<svg version="1.1" id="Layer_1" xmlns="http://www.w3.org/2000/svg" xmlns:xlink="http://www.w3.org/1999/xlink" x="0px" y="0px"
	 viewBox="0 0 427.3 136.9" style="enable-background:new 0 0 427.3 136.9;" xml:space="preserve">
<style type="text/css">
	.st0{fill:#FFFFFF;}
</style>
<g>
	<path class="st0" d="M5,109c-2.8,0-5,2.2-5,5s2.2,5,5,5s5-2.2,5-5S7.8,109,5,109z"/>
	<path class="st0" d="M18.5,91.9c-4.7,0-8.6,3.8-8.6,8.6s3.8,8.5,8.6,8.5s8.5-3.8,8.5-8.5S23.3,91.9,18.5,91.9z"/>
	<path class="st0" d="M5,10c2.8,0,5-2.2,5-5S7.8,0,5,0S0,2.2,0,5S2.2,10,5,10z"/>
	<path class="st0" d="M18.5,27.1c4.7,0,8.5-3.8,8.5-8.6S23.3,10,18.5,10S10,13.8,10,18.5S13.8,27.1,18.5,27.1z"/>
	<path class="st0" d="M114,10c2.8,0,5-2.2,5-5s-2.2-5-5-5s-5,2.2-5,5S111.3,10,114,10z"/>
	<path class="st0" d="M100.5,27.1c4.7,0,8.6-3.8,8.6-8.6s-3.8-8.5-8.6-8.5s-8.6,3.8-8.6,8.5S95.8,27.1,100.5,27.1z"/>
	<path class="st0" d="M114,109c-2.8,0-5,2.2-5,5s2.2,5,5,5s5-2.2,5-5S116.8,109,114,109z"/>
	<path class="st0" d="M100.5,91.9c-4.7,0-8.6,3.8-8.6,8.6s3.8,8.5,8.6,8.5s8.6-3.8,8.6-8.5S105.2,91.9,100.5,91.9z"/>
	<path class="st0" d="M96.4,83c0-6.2-4.2-11.3-9.8-12.9l0,0c-3.1-0.8-5.1-3.8-4.7-7c0-0.1,0-0.2,0-0.2c0-0.1,0-0.2,0-0.3l0,0
		c0.1-1,0.2-2,0.2-3.1c0-1.2-0.1-2.3-0.3-3.4c-0.3-2,0.3-4,1.8-5.5c0.8-0.8,1.8-1.4,2.9-1.7l0,0c5.6-1.6,9.8-6.7,9.8-12.9
		c0-7.4-6-13.4-13.4-13.4c-6.2,0-11.3,4.2-12.9,9.8l0,0c-0.9,3.1-3.8,5.1-7,4.7c-0.1,0-0.2,0-0.2,0c-0.1,0-0.2,0-0.3,0l0,0
		c-1-0.1-2-0.2-3.1-0.2c-1.2,0-2.3,0.1-3.4,0.3l0,0c-2,0.3-4-0.3-5.5-1.8c-0.8-0.8-1.4-1.8-1.7-2.9l0,0c-1.6-5.6-6.7-9.8-12.9-9.8
		c-7.4,0-13.4,6-13.4,13.4c0,6.2,4.2,11.3,9.8,12.9l0,0c3.1,0.9,5.1,3.8,4.7,7c0,0.1,0,0.2,0,0.2c0,0.1,0,0.2,0,0.3l0,0
		c-0.1,1-0.2,2-0.2,3.1c0,1.2,0.1,2.3,0.3,3.4c0.3,2-0.3,4-1.8,5.5c-0.8,0.8-1.8,1.4-2.9,1.7l0,0c-5.6,1.6-9.8,6.7-9.8,12.9
		c0,7.4,6,13.4,13.4,13.4c6.2,0,11.3-4.2,12.9-9.8l0,0c0.9-3.1,3.8-5.1,7-4.7c0.1,0,0.2,0,0.2,0c0.1,0,0.2,0,0.3,0l0,0
		c1,0.1,2,0.2,3.1,0.2c1.2,0,2.3-0.1,3.4-0.3c2-0.3,4,0.3,5.5,1.8c0.8,0.8,1.4,1.8,1.7,2.9l0,0c1.6,5.6,6.7,9.8,12.9,9.8
		C90.4,96.4,96.4,90.4,96.4,83L96.4,83z"/>
</g>
<path class="st0" d="M202.9,91.9H161c-2.8,0-5-2.2-5-5V32.1c0-2.8,2.2-5,5-5s5,2.2,5,5V82h37c2.8,0,5,2.2,5,5S205.7,91.9,202.9,91.9
	"/>
<path class="st0" d="M253.7,92.4c-19.9,0-30.6-13-30.6-25.2V32.1c0-2.8,2.2-5,5-5s5,2.2,5,5v35.2c0,7.4,7.2,15.2,20.7,15.2
	s20.7-7.8,20.7-15.2V32.1c0-2.8,2.2-5,5-5s5,2.2,5,5v35.2C284.3,79.4,273.6,92.4,253.7,92.4"/>
<path class="st0" d="M348.2,92.2c-1.8,0-3.4-0.9-4.3-2.4l-24-39.9V87c0,2.8-2.2,5-5,5s-5-2.2-5-5V32.1c0-2.2,1.5-4.2,3.6-4.8
	c2.2-0.6,4.5,0.3,5.6,2.2l28.9,48l28.9-48c1.1-1.9,3.4-2.8,5.6-2.2s3.6,2.6,3.6,4.8V87c0,2.8-2.2,5-5,5s-5-2.2-5-5V49.8l-24,39.9
	C351.6,91.2,350,92.2,348.2,92.2"/>
<path class="st0" d="M422.3,91.9c-2.8,0-5-2.2-5-5V32.1c0-2.8,2.2-5,5-5s5,2.2,5,5V87C427.3,89.7,425.1,91.9,422.3,91.9"/>
<path class="st0" d="M296.1,123.9c-0.5-1.1-1.2-1.9-2.2-2.4c-1-0.6-2-0.9-3.3-0.9s-2.4,0.3-3.4,0.9s-1.8,1.4-2.4,2.5
	s-0.9,2.3-0.9,3.7s0.3,2.7,0.9,3.7s1.4,1.9,2.4,2.5s2.1,0.9,3.4,0.9c1.8,0,3.2-0.5,4.3-1.6c1.1-1.1,1.8-2.5,2-4.2h-7.2v-2h9.7v1.8
	c-0.1,1.5-0.6,2.8-1.4,4.1s-1.8,2.2-3.1,2.9s-2.7,1.1-4.3,1.1c-1.7,0-3.2-0.4-4.6-1.2s-2.5-1.9-3.3-3.3s-1.2-3-1.2-4.7
	s0.4-3.3,1.2-4.7c0.8-1.4,1.9-2.5,3.3-3.3s2.9-1.2,4.6-1.2c1.9,0,3.6,0.5,5.1,1.4s2.5,2.3,3.2,4L296.1,123.9L296.1,123.9z"/>
<path class="st0" d="M315.2,134.8h6.3v1.9h-8.6v-18h2.4L315.2,134.8L315.2,134.8z"/>
<path class="st0" d="M337.9,135.7c-1.4-0.8-2.5-1.9-3.3-3.3c-0.8-1.4-1.2-3-1.2-4.7s0.4-3.3,1.2-4.7c0.8-1.4,1.9-2.5,3.3-3.3
	s2.9-1.2,4.6-1.2s3.2,0.4,4.6,1.2c1.4,0.8,2.5,1.9,3.2,3.3s1.2,3,1.2,4.7s-0.4,3.3-1.2,4.7s-1.9,2.5-3.2,3.3
	c-1.4,0.8-2.9,1.2-4.6,1.2S339.2,136.5,337.9,135.7L337.9,135.7z M345.8,133.9c1-0.6,1.8-1.4,2.4-2.5s0.9-2.3,0.9-3.8
	s-0.3-2.7-0.9-3.8c-0.6-1.1-1.4-1.9-2.4-2.5s-2.1-0.9-3.4-0.9s-2.4,0.3-3.4,0.9s-1.8,1.4-2.4,2.5s-0.9,2.3-0.9,3.8
	c0,1.4,0.3,2.7,0.9,3.8s1.4,1.9,2.4,2.5s2.1,0.9,3.4,0.9S344.8,134.5,345.8,133.9L345.8,133.9z"/>
<path class="st0" d="M375.6,128.2c0.5,0.4,1,1,1.3,1.6s0.5,1.3,0.5,2c0,0.9-0.2,1.7-0.7,2.5c-0.5,0.7-1.1,1.3-2,1.7
	s-1.9,0.6-3.1,0.6h-6.7v-18h6.4c1.2,0,2.3,0.2,3.1,0.6c0.9,0.4,1.5,0.9,1.9,1.6s0.6,1.5,0.6,2.3c0,1.1-0.3,1.9-0.9,2.6
	s-1.3,1.2-2.3,1.5C374.5,127.6,375.1,127.8,375.6,128.2L375.6,128.2z M367.2,126.5h3.9c1.1,0,2-0.3,2.5-0.8c0.6-0.5,0.9-1.2,0.9-2.1
	s-0.3-1.6-0.9-2.1s-1.5-0.8-2.6-0.8h-3.9L367.2,126.5L367.2,126.5z M374.1,133.9c0.6-0.6,1-1.3,1-2.3s-0.3-1.8-1-2.4
	c-0.7-0.6-1.6-0.9-2.8-0.9h-4.1v6.3h4.1C372.5,134.7,373.4,134.5,374.1,133.9L374.1,133.9z"/>
<path class="st0" d="M401.6,132.7h-7.8l-1.4,4h-2.5l6.5-17.9h2.7l6.5,17.9H403L401.6,132.7L401.6,132.7z M400.9,130.8l-3.2-9.1
	l-3.2,9.1H400.9L400.9,130.8z"/>
<path class="st0" d="M421,134.8h6.3v1.9h-8.6v-18h2.4L421,134.8L421,134.8z"/>
</svg>
