<?xml version="1.0" encoding="UTF-8" standalone="no" ?>
<!DOCTYPE svg PUBLIC "-//W3C//DTD SVG 1.1//EN" "http://www.w3.org/Graphics/SVG/1.1/DTD/svg11.dtd">
<svg xmlns="http://www.w3.org/2000/svg" xmlns:xlink="http://www.w3.org/1999/xlink" version="1.1" width="500" height="100" viewBox="0 0 500 100" xml:space="preserve">
<desc>Created with Fabric.js 5.2.4</desc>
<defs>
</defs>
<g transform="matrix(1 0 0 1 250 50)" id="588c8e0e-4139-4cb2-aa70-a94ba04e0269"  >
<rect style="stroke: none; stroke-width: 1; stroke-dasharray: none; stroke-linecap: butt; stroke-dashoffset: 0; stroke-linejoin: miter; stroke-miterlimit: 4; fill: rgb(255,255,255); fill-rule: nonzero; opacity: 1; visibility: hidden;" vector-effect="non-scaling-stroke"  x="-250" y="-50" rx="0" ry="0" width="500" height="100" />
</g>
<g transform="matrix(Infinity NaN NaN Infinity 0 0)" id="8cae6c88-cb8e-48a7-a716-23e0e9348d9f"  >
</g>
<g transform="matrix(0.6 0 0 0.6 250.26 53.87)"  >
<g style="" vector-effect="non-scaling-stroke"   >
		<g transform="matrix(1.33 0 0 -1.33 -340.9 -13.49)" id="path20" clip-path="url(#CLIPPATH_3)"  >
<clipPath id="CLIPPATH_3" >
	<path transform="matrix(1 0 0 1 256.12 -10.26) translate(-420.94, -297.64)" id="path14" d="M 0 595.276 L 841.89 595.276 L 841.89 0 L 0 0 Z" stroke-linecap="round" />
</clipPath>
<path style="stroke: none; stroke-width: 1; stroke-dasharray: none; stroke-linecap: butt; stroke-dashoffset: 0; stroke-linejoin: miter; stroke-miterlimit: 4; fill: rgb(255,255,255); fill-rule: nonzero; opacity: 1;" vector-effect="non-scaling-stroke"  transform=" translate(-0.15, -10.11)" d="M 0 0 L -30.05 -30.016 C -36.308 -21.647999999999996 -40.003 -11.259999999999998 -40.003 -0.01799999999999713 C -40.003 27.732000000000003 -17.518 50.235 10.232 50.235 C 21.509 50.235 31.916 46.522 40.299 40.247 L 10.441 10.423 L 1.917 18.947 L -18.93 18.947 Z" stroke-linecap="round" />
</g>
		<g transform="matrix(1.33 0 0 -1.33 -313.86 13.65)" id="path24" clip-path="url(#CLIPPATH_4)"  >
<clipPath id="CLIPPATH_4" >
	<path transform="matrix(1 0 0 1 235.84 10.1) translate(-420.94, -297.64)" id="path14" d="M 0 595.276 L 841.89 595.276 L 841.89 0 L 0 0 Z" stroke-linecap="round" />
</clipPath>
<path style="stroke: none; stroke-width: 1; stroke-dasharray: none; stroke-linecap: butt; stroke-dashoffset: 0; stroke-linejoin: miter; stroke-miterlimit: 4; fill: rgb(255,255,255); fill-rule: nonzero; opacity: 1;" vector-effect="non-scaling-stroke"  transform=" translate(40.04, 10.23)" d="M 0 0 C 0 -27.731 -22.485 -50.234 -50.234 -50.234 C -61.408 -50.234 -71.727 -46.592 -80.076 -40.421 L -50.02499999999999 -10.422999999999998 L -41.501999999999995 -18.945999999999998 L -20.654999999999994 -18.945999999999998 L -39.584 0 L -9.778 29.771 C -3.625 21.44 0 11.138 0 0" stroke-linecap="round" />
</g>
		<g transform="matrix(1.33 0 0 -1.33 -201.79 -0.86)" id="path28" clip-path="url(#CLIPPATH_5)"  >
<clipPath id="CLIPPATH_5" >
	<path transform="matrix(1 0 0 1 151.79 -0.78) translate(-420.94, -297.64)" id="path14" d="M 0 595.276 L 841.89 595.276 L 841.89 0 L 0 0 Z" stroke-linecap="round" />
</clipPath>
<path style="stroke: none; stroke-width: 1; stroke-dasharray: none; stroke-linecap: butt; stroke-dashoffset: 0; stroke-linejoin: miter; stroke-miterlimit: 4; fill: rgb(255,255,255); fill-rule: nonzero; opacity: 1;" vector-effect="non-scaling-stroke"  transform=" translate(4.84, -3.17)" d="M 0 0 C -2.465 7.926 -3.851 12.409 -4.161 13.45 C -4.470999999999999 14.486999999999998 -4.694 15.309 -4.827 15.913 C -5.381 13.767 -6.964 8.462 -9.579 0 Z M 4.525 -15.284 L 1.8590000000000004 -6.536000000000001 L -11.539 -6.536000000000001 L -14.204 -15.284 L -22.601 -15.284 L -9.629 21.62 L -0.10099999999999909 21.62 L 12.92 -15.284 Z" stroke-linecap="round" />
</g>
		<g transform="matrix(1.33 0 0 -1.33 -158.99 -0.78)" id="path32" clip-path="url(#CLIPPATH_6)"  >
<clipPath id="CLIPPATH_6" >
	<path transform="matrix(1 0 0 1 119.69 -0.72) translate(-420.94, -297.64)" id="path14" d="M 0 595.276 L 841.89 595.276 L 841.89 0 L 0 0 Z" stroke-linecap="round" />
</clipPath>
<path style="stroke: none; stroke-width: 1; stroke-dasharray: none; stroke-linecap: butt; stroke-dashoffset: 0; stroke-linejoin: miter; stroke-miterlimit: 4; fill: rgb(255,255,255); fill-rule: nonzero; opacity: 1;" vector-effect="non-scaling-stroke"  transform=" translate(11.98, -8.18)" d="M 0 0 C 0 -3.318 -1.194 -5.933 -3.583 -7.844 C -5.971 -9.754 -9.293 -10.708 -13.55 -10.708 C -17.472 -10.708 -20.941000000000003 -9.971 -23.958 -8.496 L -23.958 -1.2560000000000002 C -21.477999999999998 -2.362 -19.378 -3.1420000000000003 -17.660999999999998 -3.5940000000000003 C -15.941999999999998 -4.047000000000001 -14.371999999999998 -4.272 -12.946999999999997 -4.272 C -11.236999999999998 -4.272 -9.925999999999998 -3.946 -9.012999999999998 -3.2920000000000003 C -8.098999999999998 -2.6390000000000002 -7.641999999999998 -1.6670000000000003 -7.641999999999998 -0.37600000000000033 C -7.641999999999998 0.34399999999999964 -7.842999999999997 0.9849999999999997 -8.245999999999997 1.5459999999999996 C -8.646999999999997 2.1069999999999998 -9.238999999999997 2.6469999999999994 -10.018999999999997 3.1689999999999996 C -10.796999999999997 3.6869999999999994 -12.385999999999996 4.516 -14.780999999999995 5.6579999999999995 C -17.027999999999995 6.712 -18.711999999999996 7.726999999999999 -19.834999999999994 8.699 C -20.957999999999995 9.671 -21.854999999999993 10.802 -22.523999999999994 12.093 C -23.195999999999994 13.383 -23.529999999999994 14.891 -23.529999999999994 16.619 C -23.529999999999994 19.868 -22.427999999999994 22.424 -20.224999999999994 24.285 C -18.020999999999994 26.145 -14.974999999999994 27.076 -11.085999999999995 27.076 C -9.175999999999995 27.076 -7.353999999999995 26.848 -5.618999999999995 26.397000000000002 C -3.8849999999999953 25.943 -2.0699999999999954 25.307000000000002 -0.17599999999999572 24.486 L -2.69 18.428 C -4.651 19.233 -6.272 19.794 -7.555 20.111 C -8.836 20.431 -10.097999999999999 20.589000000000002 -11.338 20.589000000000002 C -12.812999999999999 20.589000000000002 -13.945 20.245 -14.732 19.559 C -15.52 18.871000000000002 -15.913 17.975 -15.913 16.869 C -15.913 16.181 -15.755 15.582 -15.436 15.072 C -15.118 14.561 -14.61 14.065999999999999 -13.915 13.588 C -13.219999999999999 13.11 -11.572999999999999 12.251999999999999 -8.974999999999998 11.011999999999999 C -5.539 9.37 -3.185 7.723 -1.91 6.071 C -0.638 4.42 0 2.397 0 0" stroke-linecap="round" />
</g>
		<g transform="matrix(1.33 0 0 -1.33 -121.18 -0.78)" id="path36" clip-path="url(#CLIPPATH_7)"  >
<clipPath id="CLIPPATH_7" >
	<path transform="matrix(1 0 0 1 91.33 -0.72) translate(-420.94, -297.64)" id="path14" d="M 0 595.276 L 841.89 595.276 L 841.89 0 L 0 0 Z" stroke-linecap="round" />
</clipPath>
<path style="stroke: none; stroke-width: 1; stroke-dasharray: none; stroke-linecap: butt; stroke-dashoffset: 0; stroke-linejoin: miter; stroke-miterlimit: 4; fill: rgb(255,255,255); fill-rule: nonzero; opacity: 1;" vector-effect="non-scaling-stroke"  transform=" translate(11.98, -8.18)" d="M 0 0 C 0 -3.318 -1.194 -5.933 -3.583 -7.844 C -5.971 -9.754 -9.293 -10.708 -13.55 -10.708 C -17.472 -10.708 -20.941000000000003 -9.971 -23.958 -8.496 L -23.958 -1.2560000000000002 C -21.477999999999998 -2.362 -19.378 -3.1420000000000003 -17.660999999999998 -3.5940000000000003 C -15.941999999999998 -4.047000000000001 -14.371999999999998 -4.272 -12.946999999999997 -4.272 C -11.237999999999998 -4.272 -9.925999999999998 -3.946 -9.012999999999998 -3.2920000000000003 C -8.098999999999998 -2.6390000000000002 -7.641999999999998 -1.6670000000000003 -7.641999999999998 -0.37600000000000033 C -7.641999999999998 0.34399999999999964 -7.842999999999997 0.9849999999999997 -8.245999999999997 1.5459999999999996 C -8.647999999999996 2.1069999999999998 -9.238999999999997 2.6469999999999994 -10.018999999999997 3.1689999999999996 C -10.796999999999997 3.6869999999999994 -12.385999999999996 4.516 -14.781999999999996 5.6579999999999995 C -17.027999999999995 6.712 -18.711999999999996 7.726999999999999 -19.834999999999997 8.699 C -20.958 9.671 -21.854999999999997 10.802 -22.523999999999997 12.093 C -23.195999999999998 13.383 -23.529999999999998 14.891 -23.529999999999998 16.619 C -23.529999999999998 19.868 -22.427999999999997 22.424 -20.224999999999998 24.285 C -18.020999999999997 26.145 -14.974999999999998 27.076 -11.086999999999998 27.076 C -9.175999999999998 27.076 -7.353999999999997 26.848 -5.618999999999998 26.397000000000002 C -3.884999999999998 25.943 -2.069999999999998 25.307000000000002 -0.17699999999999783 24.486 L -2.69 18.428 C -4.651 19.233 -6.272 19.794 -7.555 20.111 C -8.836 20.431 -10.097999999999999 20.589000000000002 -11.338 20.589000000000002 C -12.812999999999999 20.589000000000002 -13.945 20.245 -14.732 19.559 C -15.52 18.871000000000002 -15.914 17.975 -15.914 16.869 C -15.914 16.181 -15.754999999999999 15.582 -15.437 15.072 C -15.117999999999999 14.561 -14.610999999999999 14.065999999999999 -13.915 13.588 C -13.219999999999999 13.11 -11.572999999999999 12.251999999999999 -8.974999999999998 11.011999999999999 C -5.54 9.37 -3.186 7.723 -1.911 6.071 C -0.638 4.42 0 2.397 0 0" stroke-linecap="round" />
</g>
		<g transform="matrix(1.33 0 0 -1.33 -82.21 -0.76)" id="path40" clip-path="url(#CLIPPATH_8)"  >
<clipPath id="CLIPPATH_8" >
	<path transform="matrix(1 0 0 1 62.11 -0.71) translate(-420.94, -297.64)" id="path14" d="M 0 595.276 L 841.89 595.276 L 841.89 0 L 0 0 Z" stroke-linecap="round" />
</clipPath>
<path style="stroke: none; stroke-width: 1; stroke-dasharray: none; stroke-linecap: butt; stroke-dashoffset: 0; stroke-linejoin: miter; stroke-miterlimit: 4; fill: rgb(255,255,255); fill-rule: nonzero; opacity: 1;" vector-effect="non-scaling-stroke"  transform=" translate(10.58, -18.38)" d="M 0 0 L -21.167 0 L -21.167 36.752 L 0 36.752 L 0 30.368000000000002 L -13.374 30.368000000000002 L -13.374 22.298000000000002 L -0.931 22.298000000000002 L -0.931 15.912 L -13.374 15.912 L -13.374 6.436 L 0 6.436 Z" stroke-linecap="round" />
</g>
		<g transform="matrix(1.33 0 0 -1.33 -31.68 -0.76)" id="path44" clip-path="url(#CLIPPATH_9)"  >
<clipPath id="CLIPPATH_9" >
	<path transform="matrix(1 0 0 1 24.21 -0.71) translate(-420.94, -297.64)" id="path14" d="M 0 595.276 L 841.89 595.276 L 841.89 0 L 0 0 Z" stroke-linecap="round" />
</clipPath>
<path style="stroke: none; stroke-width: 1; stroke-dasharray: none; stroke-linecap: butt; stroke-dashoffset: 0; stroke-linejoin: miter; stroke-miterlimit: 4; fill: rgb(255,255,255); fill-rule: nonzero; opacity: 1;" vector-effect="non-scaling-stroke"  transform=" translate(-4.08, -18.38)" d="M 0 0 L -8.849 28.834 L -9.076 28.834 C -8.757 22.967 -8.599 19.054000000000002 -8.599 17.094 L -8.599 0 L -15.562000000000001 0 L -15.562000000000001 36.752 L -4.953 36.752 L 3.745 8.647 L 3.896 8.647 L 13.122 36.752 L 23.731 36.752 L 23.731 0 L 16.466 0 L 16.466 17.396 C 16.466 18.216 16.478 19.164 16.503 20.236 C 16.528 21.309 16.641000000000002 24.158 16.842 28.783 L 16.616 28.783 L 7.14 0 Z" stroke-linecap="round" />
</g>
		<g transform="matrix(1.33 0 0 -1.33 22.9 -0.76)" id="path48" clip-path="url(#CLIPPATH_10)"  >
<clipPath id="CLIPPATH_10" >
	<path transform="matrix(1 0 0 1 -16.73 -0.71) translate(-420.94, -297.64)" id="path14" d="M 0 595.276 L 841.89 595.276 L 841.89 0 L 0 0 Z" stroke-linecap="round" />
</clipPath>
<path style="stroke: none; stroke-width: 1; stroke-dasharray: none; stroke-linecap: butt; stroke-dashoffset: 0; stroke-linejoin: miter; stroke-miterlimit: 4; fill: rgb(255,255,255); fill-rule: nonzero; opacity: 1;" vector-effect="non-scaling-stroke"  transform=" translate(-5.83, -2.36)" d="M 0 0 L 0 -9.577 L 5.076 -9.577 C 7.2219999999999995 -9.577 8.806 -9.169 9.827 -8.346 C 10.850999999999999 -7.526 11.36 -6.268000000000001 11.36 -4.574 C 11.36 -1.526 9.182 0 4.826 0 Z M 0 6.185 L 4.522 6.185 C 6.6370000000000005 6.185 8.165 6.512 9.112 7.164 C 10.058 7.819 10.531 8.9 10.531 10.408999999999999 C 10.531 11.815999999999999 10.018 12.823999999999998 8.984 13.437 C 7.955 14.049 6.325 14.354999999999999 4.096 14.354999999999999 L 0 14.354999999999999 Z M -7.795 20.739 L 3.6449999999999996 20.739 C 8.855 20.739 12.639 19.997 14.993 18.516000000000002 C 17.349 17.032000000000004 18.526 14.672000000000002 18.526 11.439000000000002 C 18.526 9.242 18.01 7.441 16.98 6.033 C 15.95 4.625 14.578 3.779 12.871 3.495 L 12.871 3.242 C 15.199 2.724 16.880000000000003 1.752 17.91 0.32600000000000007 C 18.939 -1.0979999999999999 19.456 -2.992 19.456 -5.353999999999999 C 19.456 -8.706 18.245 -11.32 15.822 -13.197 C 13.402 -15.074 10.113 -16.012999999999998 5.956999999999999 -16.012999999999998 L -7.795 -16.012999999999998 Z" stroke-linecap="round" />
</g>
		<g transform="matrix(1.33 0 0 -1.33 65.99 -0.76)" id="path52" clip-path="url(#CLIPPATH_11)"  >
<clipPath id="CLIPPATH_11" >
	<path transform="matrix(1 0 0 1 -49.05 -0.71) translate(-420.94, -297.64)" id="path14" d="M 0 595.276 L 841.89 595.276 L 841.89 0 L 0 0 Z" stroke-linecap="round" />
</clipPath>
<path style="stroke: none; stroke-width: 1; stroke-dasharray: none; stroke-linecap: butt; stroke-dashoffset: 0; stroke-linejoin: miter; stroke-miterlimit: 4; fill: rgb(255,255,255); fill-rule: nonzero; opacity: 1;" vector-effect="non-scaling-stroke"  transform=" translate(-11.35, -18.38)" d="M 0 0 L 0 36.752 L 7.794 36.752 L 7.794 6.436 L 22.701 6.436 L 22.701 0 Z" stroke-linecap="round" />
</g>
		<g transform="matrix(1.33 0 0 -1.33 95.74 -0.76)" id="path56" clip-path="url(#CLIPPATH_12)"  >
<clipPath id="CLIPPATH_12" >
	<path transform="matrix(1 0 0 1 -71.36 -0.71) translate(-420.94, -297.64)" id="path14" d="M 0 595.276 L 841.89 595.276 L 841.89 0 L 0 0 Z" stroke-linecap="round" />
</clipPath>
<path style="stroke: none; stroke-width: 1; stroke-dasharray: none; stroke-linecap: butt; stroke-dashoffset: 0; stroke-linejoin: miter; stroke-miterlimit: 4; fill: rgb(255,255,255); fill-rule: nonzero; opacity: 1;" vector-effect="non-scaling-stroke"  transform=" translate(0, 3.24)" d="M 0 0 L 7.667 15.133 L 16.064 15.133 L 3.87 -7.316 L 3.87 -21.619 L -3.873 -21.619 L -3.873 -7.565999999999999 L -16.064 15.133000000000003 L -7.618 15.133000000000003 z" stroke-linecap="round" />
</g>
		<g transform="matrix(1.33 0 0 -1.33 166.45 -0.76)" id="path60" clip-path="url(#CLIPPATH_13)"  >
<clipPath id="CLIPPATH_13" >
	<path transform="matrix(1 0 0 1 -124.39 -0.71) translate(-420.94, -297.64)" id="path14" d="M 0 595.276 L 841.89 595.276 L 841.89 0 L 0 0 Z" stroke-linecap="round" />
</clipPath>
<path style="stroke: none; stroke-width: 1; stroke-dasharray: none; stroke-linecap: butt; stroke-dashoffset: 0; stroke-linejoin: miter; stroke-miterlimit: 4; fill: rgb(255,255,255); fill-rule: nonzero; opacity: 1;" vector-effect="non-scaling-stroke"  transform=" translate(8.86, 18.38)" d="M 0 0 L 7.87 0 L -4.626 -36.752 L -13.122 -36.752 L -25.591 0 L -17.723 0 L -10.809999999999999 -21.87 C -10.424999999999999 -23.161 -10.024 -24.665 -9.616 -26.384 C -9.205 -28.1 -8.947 -29.296 -8.85 -29.966 C -8.664 -28.424 -8.036 -25.725 -6.9639999999999995 -21.87 z" stroke-linecap="round" />
</g>
		<g transform="matrix(1.33 0 0 -1.33 214.06 -0.81)" id="path64" clip-path="url(#CLIPPATH_14)"  >
<clipPath id="CLIPPATH_14" >
	<path transform="matrix(1 0 0 1 -160.1 -0.74) translate(-420.94, -297.64)" id="path14" d="M 0 595.276 L 841.89 595.276 L 841.89 0 L 0 0 Z" stroke-linecap="round" />
</clipPath>
<path style="stroke: none; stroke-width: 1; stroke-dasharray: none; stroke-linecap: butt; stroke-dashoffset: 0; stroke-linejoin: miter; stroke-miterlimit: 4; fill: rgb(255,255,255); fill-rule: nonzero; opacity: 1;" vector-effect="non-scaling-stroke"  transform=" translate(-9.33, 0.01)" d="M 0 0 C 0 -4.107 0.779 -7.197 2.337 -9.275 C 3.896 -11.354000000000001 6.226 -12.393 9.327 -12.393 C 15.543 -12.393 18.651 -8.264000000000001 18.651 0 C 18.651 8.279 15.562 12.42 9.376 12.42 C 6.276 12.42 3.9379999999999997 11.376 2.3609999999999998 9.29 C 0.786 7.202 0 4.105 0 0 M 26.823 0 C 26.823 -6.082 25.315 -10.759 22.299 -14.026 C 19.282 -17.295 14.957999999999998 -18.929 9.327 -18.929 C 3.6950000000000003 -18.929 -0.6280000000000001 -17.294999999999998 -3.6449999999999996 -14.026 C -6.661 -10.759 -8.17 -6.066 -8.17 0.0519999999999996 C -8.17 6.167 -6.657 10.84 -3.6340000000000003 14.064 C -0.6080000000000005 17.292 3.729 18.905 9.376 18.905 C 15.024999999999999 18.905 19.345 17.278000000000002 22.337 14.029 C 25.326 10.775 26.823 6.101 26.823 0" stroke-linecap="round" />
</g>
		<g transform="matrix(1.33 0 0 -1.33 258.2 -0.76)" id="path68" clip-path="url(#CLIPPATH_15)"  >
<clipPath id="CLIPPATH_15" >
	<path transform="matrix(1 0 0 1 -193.2 -0.71) translate(-420.94, -297.64)" id="path14" d="M 0 595.276 L 841.89 595.276 L 841.89 0 L 0 0 Z" stroke-linecap="round" />
</clipPath>
<path style="stroke: none; stroke-width: 1; stroke-dasharray: none; stroke-linecap: butt; stroke-dashoffset: 0; stroke-linejoin: miter; stroke-miterlimit: 4; fill: rgb(255,255,255); fill-rule: nonzero; opacity: 1;" vector-effect="non-scaling-stroke"  transform=" translate(3.9, -18.38)" d="M 0 0 L -7.792 0 L -7.792 30.267 L -17.773 30.267 L -17.773 36.752 L 9.979 36.752 L 9.979 30.267000000000003 L 0 30.267000000000003 z" stroke-linecap="round" />
</g>
		<g transform="matrix(1.33 0 0 -1.33 288.64 -0.76)" id="path70" clip-path="url(#CLIPPATH_16)"  >
<clipPath id="CLIPPATH_16" >
	<path transform="matrix(1 0 0 1 -216.04 -0.71) translate(-420.94, -297.64)" id="path14" d="M 0 595.276 L 841.89 595.276 L 841.89 0 L 0 0 Z" stroke-linecap="round" />
</clipPath>
<path style="stroke: none; stroke-width: 1; stroke-dasharray: none; stroke-linecap: butt; stroke-dashoffset: 0; stroke-linejoin: miter; stroke-miterlimit: 4; fill: rgb(255,255,255); fill-rule: nonzero; opacity: 1;" vector-effect="non-scaling-stroke"  transform=" translate(-636.98, -298.35)" d="M 633.085 316.721 L 640.879 316.721 L 640.879 279.969 L 633.085 279.969 z" stroke-linecap="round" />
</g>
		<g transform="matrix(1.33 0 0 -1.33 325.37 -0.76)" id="path74" clip-path="url(#CLIPPATH_17)"  >
<clipPath id="CLIPPATH_17" >
	<path transform="matrix(1 0 0 1 -243.59 -0.71) translate(-420.94, -297.64)" id="path14" d="M 0 595.276 L 841.89 595.276 L 841.89 0 L 0 0 Z" stroke-linecap="round" />
</clipPath>
<path style="stroke: none; stroke-width: 1; stroke-dasharray: none; stroke-linecap: butt; stroke-dashoffset: 0; stroke-linejoin: miter; stroke-miterlimit: 4; fill: rgb(255,255,255); fill-rule: nonzero; opacity: 1;" vector-effect="non-scaling-stroke"  transform=" translate(16.3, -18.38)" d="M 0 0 L -9.903 0 L -25.892000000000003 27.802 L -26.120000000000005 27.802 C -25.801000000000005 22.893 -25.642000000000003 19.389 -25.642000000000003 17.295 L -25.642000000000003 0 L -32.604 0 L -32.604 36.752 L -22.774 36.752 L -6.813 9.227 L -6.637 9.227 C -6.887 14.002 -7.015 17.378 -7.015 19.355 L -7.015 36.752 L 0 36.752 Z" stroke-linecap="round" />
</g>
		<g transform="matrix(1.33 0 0 -1.33 374.33 -0.78)" id="path78" clip-path="url(#CLIPPATH_18)"  >
<clipPath id="CLIPPATH_18" >
	<path transform="matrix(1 0 0 1 -280.3 -0.72) translate(-420.94, -297.64)" id="path14" d="M 0 595.276 L 841.89 595.276 L 841.89 0 L 0 0 Z" stroke-linecap="round" />
</clipPath>
<path style="stroke: none; stroke-width: 1; stroke-dasharray: none; stroke-linecap: butt; stroke-dashoffset: 0; stroke-linejoin: miter; stroke-miterlimit: 4; fill: rgb(255,255,255); fill-rule: nonzero; opacity: 1;" vector-effect="non-scaling-stroke"  transform=" translate(0.5, 2.25)" d="M 0 0 L 14.58 0 L 14.58 -19.054 C 12.216000000000001 -19.828 9.992 -20.366 7.905 -20.676 C 5.818 -20.987 3.6870000000000003 -21.141 1.508 -21.141 C -4.041 -21.141 -8.274999999999999 -19.511999999999997 -11.2 -16.252 C -14.125 -12.991999999999999 -15.587 -8.312999999999999 -15.587 -2.2119999999999997 C -15.587 3.721 -13.891 8.346 -10.495999999999999 11.665000000000001 C -7.1019999999999985 14.983 -2.397999999999998 16.643 3.6190000000000015 16.643 C 7.3900000000000015 16.643 11.027000000000001 15.888 14.528000000000002 14.379000000000001 L 11.941 8.145 C 9.258 9.486 6.469 10.156 3.568 10.156 C 0.2 10.156 -2.499 9.025 -4.525 6.762 C -6.555 4.5 -7.566 1.459 -7.566 -2.362 C -7.566 -6.353 -6.7509999999999994 -9.399000000000001 -5.117 -11.501 C -3.481 -13.604 -1.1059999999999999 -14.657 2.011 -14.657 C 3.6350000000000002 -14.657 5.286 -14.489 6.963 -14.154 L 6.963 -6.485 L 0 -6.485 Z" stroke-linecap="round" />
</g>
</g>
</g>
</svg>