<?xml version="1.0" encoding="UTF-8"?>
<svg xmlns="http://www.w3.org/2000/svg" xmlns:xlink="http://www.w3.org/1999/xlink" width="16px" height="16px" viewBox="0 0 16 16" version="1.1">
<g id="surface1">
<path style=" stroke:none;fill-rule:nonzero;fill:rgb(95.294118%,57.254905%,0%);fill-opacity:1;" d="M 0.679688 14.644531 C 0.300781 14.644531 0.0078125 14.9375 0.0078125 15.316406 C 0.0078125 15.691406 0.300781 15.988281 0.679688 15.988281 C 1.054688 15.988281 1.351562 15.691406 1.351562 15.316406 C 1.351562 14.9375 1.054688 14.644531 0.679688 14.644531 Z M 0.679688 14.644531 "/>
<path style=" stroke:none;fill-rule:nonzero;fill:rgb(95.294118%,57.254905%,0%);fill-opacity:1;" d="M 2.503906 12.347656 C 1.875 12.347656 1.363281 12.855469 1.363281 13.5 C 1.363281 14.132812 1.875 14.644531 2.503906 14.644531 C 3.136719 14.644531 3.660156 14.132812 3.660156 13.5 C 3.660156 12.871094 3.136719 12.347656 2.503906 12.347656 Z M 2.503906 12.347656 "/>
<path style=" stroke:none;fill-rule:nonzero;fill:rgb(95.294118%,57.254905%,0%);fill-opacity:1;" d="M 0.679688 1.34375 C 1.054688 1.34375 1.351562 1.046875 1.351562 0.671875 C 1.351562 0.296875 1.054688 0 0.679688 0 C 0.300781 0 0.0078125 0.296875 0.0078125 0.671875 C 0.0078125 1.046875 0.300781 1.34375 0.679688 1.34375 Z M 0.679688 1.34375 "/>
<path style=" stroke:none;fill-rule:nonzero;fill:rgb(95.294118%,57.254905%,0%);fill-opacity:1;" d="M 2.503906 3.640625 C 3.136719 3.640625 3.660156 3.128906 3.660156 2.5 C 3.660156 1.867188 3.136719 1.34375 2.503906 1.34375 C 1.875 1.34375 1.351562 1.855469 1.351562 2.5 C 1.351562 3.144531 1.859375 3.640625 2.503906 3.640625 Z M 2.503906 3.640625 "/>
<path style=" stroke:none;fill-rule:nonzero;fill:rgb(95.294118%,57.254905%,0%);fill-opacity:1;" d="M 15.320312 1.34375 C 15.699219 1.34375 15.992188 1.046875 15.992188 0.671875 C 15.992188 0.296875 15.699219 0 15.320312 0 C 14.945312 0 14.648438 0.296875 14.648438 0.671875 C 14.648438 1.046875 14.957031 1.34375 15.320312 1.34375 Z M 15.320312 1.34375 "/>
<path style=" stroke:none;fill-rule:nonzero;fill:rgb(95.294118%,57.254905%,0%);fill-opacity:1;" d="M 13.507812 3.640625 C 14.140625 3.640625 14.664062 3.128906 14.664062 2.5 C 14.664062 1.867188 14.152344 1.355469 13.507812 1.355469 C 12.863281 1.355469 12.351562 1.867188 12.351562 2.5 C 12.351562 3.128906 12.875 3.640625 13.507812 3.640625 Z M 13.507812 3.640625 "/>
<path style=" stroke:none;fill-rule:nonzero;fill:rgb(95.294118%,57.254905%,0%);fill-opacity:1;" d="M 15.320312 14.644531 C 14.945312 14.644531 14.648438 14.9375 14.648438 15.316406 C 14.648438 15.691406 14.945312 15.988281 15.320312 15.988281 C 15.699219 15.988281 15.992188 15.691406 15.992188 15.316406 C 15.992188 14.9375 15.699219 14.644531 15.320312 14.644531 Z M 15.320312 14.644531 "/>
<path style=" stroke:none;fill-rule:nonzero;fill:rgb(95.294118%,57.254905%,0%);fill-opacity:1;" d="M 13.507812 12.347656 C 12.875 12.347656 12.351562 12.855469 12.351562 13.5 C 12.351562 14.132812 12.863281 14.644531 13.507812 14.644531 C 14.152344 14.644531 14.664062 14.132812 14.664062 13.5 C 14.664062 12.871094 14.140625 12.347656 13.507812 12.347656 Z M 13.507812 12.347656 "/>
<path style=" stroke:none;fill-rule:nonzero;fill:rgb(95.294118%,57.254905%,0%);fill-opacity:1;" d="M 12.957031 11.148438 C 12.957031 10.316406 12.394531 9.632812 11.640625 9.417969 C 11.222656 9.308594 10.957031 8.90625 11.007812 8.476562 C 11.007812 8.464844 11.007812 8.449219 11.007812 8.449219 C 11.007812 8.4375 11.007812 8.421875 11.007812 8.410156 C 11.023438 8.277344 11.035156 8.140625 11.035156 7.992188 C 11.035156 7.832031 11.023438 7.683594 10.996094 7.535156 C 10.957031 7.269531 11.035156 7 11.238281 6.796875 C 11.34375 6.691406 11.480469 6.609375 11.628906 6.570312 C 12.378906 6.355469 12.945312 5.667969 12.945312 4.835938 C 12.945312 3.84375 12.136719 3.035156 11.144531 3.035156 C 10.3125 3.035156 9.625 3.601562 9.410156 4.351562 C 9.289062 4.769531 8.898438 5.039062 8.46875 4.984375 C 8.457031 4.984375 8.441406 4.984375 8.441406 4.984375 C 8.429688 4.984375 8.417969 4.984375 8.402344 4.984375 C 8.269531 4.96875 8.132812 4.957031 7.988281 4.957031 C 7.824219 4.957031 7.675781 4.96875 7.53125 4.996094 C 7.261719 5.039062 6.992188 4.957031 6.789062 4.753906 C 6.683594 4.648438 6.601562 4.515625 6.5625 4.367188 C 6.347656 3.613281 5.664062 3.050781 4.828125 3.050781 C 3.835938 3.050781 3.03125 3.855469 3.03125 4.851562 C 3.03125 5.683594 3.59375 6.367188 4.347656 6.582031 C 4.761719 6.703125 5.03125 7.09375 4.976562 7.523438 C 4.976562 7.535156 4.976562 7.550781 4.976562 7.550781 C 4.976562 7.5625 4.976562 7.578125 4.976562 7.589844 C 4.964844 7.722656 4.949219 7.859375 4.949219 8.007812 C 4.949219 8.167969 4.964844 8.316406 4.992188 8.464844 C 5.03125 8.730469 4.949219 9 4.75 9.203125 C 4.640625 9.308594 4.507812 9.390625 4.359375 9.429688 C 3.605469 9.644531 3.042969 10.332031 3.042969 11.164062 C 3.042969 12.15625 3.847656 12.964844 4.84375 12.964844 C 5.675781 12.964844 6.359375 12.398438 6.574219 11.648438 C 6.695312 11.230469 7.085938 10.960938 7.515625 11.015625 C 7.53125 11.015625 7.542969 11.015625 7.542969 11.015625 C 7.558594 11.015625 7.570312 11.015625 7.582031 11.015625 C 7.71875 11.03125 7.851562 11.042969 8 11.042969 C 8.160156 11.042969 8.308594 11.03125 8.457031 11.003906 C 8.726562 10.960938 8.992188 11.042969 9.195312 11.246094 C 9.304688 11.351562 9.382812 11.484375 9.425781 11.632812 C 9.640625 12.386719 10.324219 12.949219 11.15625 12.949219 C 12.152344 12.949219 12.957031 12.144531 12.957031 11.148438 Z M 12.957031 11.148438 "/>
</g>
</svg>
